<?xml version="1.0" encoding="utf-8"?>
<!-- Generator: Adobe Illustrator 15.0.0, SVG Export Plug-In . SVG Version: 6.00 Build 0)  -->
<!DOCTYPE svg PUBLIC "-//W3C//DTD SVG 1.1//EN" "http://www.w3.org/Graphics/SVG/1.1/DTD/svg11.dtd">
<svg version="1.1" id="Layer_1" focusable="false" xmlns="http://www.w3.org/2000/svg" xmlns:xlink="http://www.w3.org/1999/xlink"
	 x="0px" y="0px" width="510.24px" height="524.41px" viewBox="0 0 510.24 524.41" enable-background="new 0 0 510.24 524.41"
	 xml:space="preserve">
<path d="M340.497,367.766h21.898c6.256,0,12.514-7.419,12.514-14.836V85.862c0-7.419-6.258-14.837-12.514-14.837h-21.898
	c-6.254,0-12.512,7.418-12.512,14.837v267.066C327.985,360.347,334.243,367.766,340.497,367.766z"/>
<path d="M228.628,367.766h21.897c6.259,0,12.515-5.934,12.515-11.869V171.917c0-5.935-6.258-11.869-12.515-11.869h-21.897
	c-6.258,0-12.514,5.935-12.514,11.869v183.979C216.114,361.832,222.372,367.766,228.628,367.766z"/>
<path d="M494.295,405.71H47.835V86.81c0-8.81-7.135-15.945-15.945-15.945H15.945C7.135,70.865,0,78,0,86.81v334.845
	c0,17.608,14.281,31.89,31.89,31.89h462.405c8.81,0,15.945-7.135,15.945-15.944v-15.944
	C510.24,412.846,503.104,405.71,494.295,405.71z"/>
<path d="M116.758,367.766h21.898c6.256,0,12.514-5.934,12.514-11.869v-65.283c0-5.934-6.258-11.869-12.514-11.869h-21.898
	c-6.257,0-12.513,5.936-12.513,11.869v65.283C104.245,361.832,110.501,367.766,116.758,367.766z"/>
<path d="M452.367,367.766h21.897c6.256,0,12.514-4.282,12.514-8.563V205.059c0-4.282-6.258-8.564-12.514-8.564h-21.897
	c-6.257,0-12.513,4.282-12.513,8.564v154.143C439.854,363.483,446.11,367.766,452.367,367.766z"/>
</svg>
