<?xml version="1.0" encoding="utf-8"?>
<!-- Generator: Adobe Illustrator 15.0.0, SVG Export Plug-In . SVG Version: 6.00 Build 0)  -->
<!DOCTYPE svg PUBLIC "-//W3C//DTD SVG 1.1//EN" "http://www.w3.org/Graphics/SVG/1.1/DTD/svg11.dtd">
<svg version="1.1" id="Layer_1" focusable="false" xmlns="http://www.w3.org/2000/svg" xmlns:xlink="http://www.w3.org/1999/xlink"
	 x="0px" y="0px" width="510.24px" height="524.41px" viewBox="0 0 510.24 524.41" enable-background="new 0 0 510.24 524.41"
	 xml:space="preserve">
<path fill="#597EF7" d="M336.497,392.766h21.897c6.257,0,12.515-8.403,12.515-16.806V73.422c0-8.404-6.258-16.807-12.515-16.807
	h-21.897c-6.254,0-12.512,8.403-12.512,16.807v302.535C323.985,384.362,330.243,392.766,336.497,392.766z"/>
<path fill="#597EF7" d="M224.628,392.766h21.897c6.259,0,12.515-6.722,12.515-13.445V170.906c0-6.723-6.258-13.445-12.515-13.445
	h-21.897c-6.258,0-12.514,6.723-12.514,13.445V379.32C212.114,386.044,218.372,392.766,224.628,392.766z"/>
<path fill="#597EF7" d="M490.295,430.71H43.835V72.945C43.835,64.135,36.7,57,27.89,57h-6.945C12.135,57,5,64.135,5,72.945v373.71
	c0,17.607,5.281,23.89,22.89,23.89h462.405c8.811,0,15.945-7.135,15.945-15.944v-7.943
	C506.24,437.846,499.104,430.71,490.295,430.71z"/>
<path fill="#597EF7" d="M112.758,392.766h21.898c6.256,0,12.514-6.722,12.514-13.445v-73.953c0-6.723-6.258-13.445-12.514-13.445
	h-21.898c-6.257,0-12.513,6.726-12.513,13.445v73.953C100.245,386.044,106.501,392.766,112.758,392.766z"/>
<path fill="#597EF7" d="M448.367,392.766h21.896c6.256,0,12.515-4.85,12.515-9.699V208.45c0-4.851-6.259-9.702-12.515-9.702h-21.896
	c-6.257,0-12.514,4.851-12.514,9.702v174.615C435.854,387.913,442.11,392.766,448.367,392.766z"/>
</svg>
